<svg xmlns="http://www.w3.org/2000/svg" xmlns:xlink="http://www.w3.org/1999/xlink" width="1366" height="634" version="1.1">
<style type="text/css">
.l0{
  fill: #ffffff;
  stroke: #ffffff;
  stroke-linecap:round;
  stroke-linejoin:round;
  stroke-width: 0.864;
}
.l1{
  fill: #0044ee;
  stroke: #0044ee;
  stroke-linecap:round;
  stroke-linejoin:round;
  stroke-width: 0.864;
}
.l2{
  fill: #aaaaaa; fill-opacity: 0.2;
  stroke: #aaaaaa;
  stroke-linecap:round;
  stroke-linejoin:round;
  stroke-width: 0.864;
}
.l3{
  fill: #222222;
  stroke: #222222;
  stroke-linecap:round;
  stroke-linejoin:round;
  stroke-width: 0.864;
}
.l4{
  fill: #229900;
  stroke: #229900;
  stroke-linecap:round;
  stroke-linejoin:round;
  stroke-width: 0.864;
}
.l5{
  fill: #bb2200;
  stroke: #bb2200;
  stroke-linecap:round;
  stroke-linejoin:round;
  stroke-width: 0.864;
}
.l6{
  fill: #00ccee;
  stroke: #00ccee;
  stroke-linecap:round;
  stroke-linejoin:round;
  stroke-width: 0.864;
}
.l7{
  fill: #ff0000;
  stroke: #ff0000;
  stroke-linecap:round;
  stroke-linejoin:round;
  stroke-width: 0.864;
}
.l8{
  fill: #888800;
  stroke: #888800;
  stroke-linecap:round;
  stroke-linejoin:round;
  stroke-width: 0.864;
}
.l9{
  fill: #00aaaa;
  stroke: #00aaaa;
  stroke-linecap:round;
  stroke-linejoin:round;
  stroke-width: 0.864;
}
.l10{
  fill: #880088;
  stroke: #880088;
  stroke-linecap:round;
  stroke-linejoin:round;
  stroke-width: 0.864;
}
.l11{
  fill: #00ff00;
  stroke: #00ff00;
  stroke-linecap:round;
  stroke-linejoin:round;
  stroke-width: 0.864;
}
.l12{
  fill: #0000cc;
  stroke: #0000cc;
  stroke-linecap:round;
  stroke-linejoin:round;
  stroke-width: 0.864;
}
.l13{
  fill: #666600;
  stroke: #666600;
  stroke-linecap:round;
  stroke-linejoin:round;
  stroke-width: 0.864;
}
.l14{
  fill: #557755; fill-opacity: 0.2;
  stroke: #557755;
  stroke-linecap:round;
  stroke-linejoin:round;
  stroke-width: 0.864;
}
.l15{
  fill: #aa2222;
  stroke: #aa2222;
  stroke-linecap:round;
  stroke-linejoin:round;
  stroke-width: 0.864;
}
.l16{
  fill: #7ccc40;
  stroke: #7ccc40;
  stroke-linecap:round;
  stroke-linejoin:round;
  stroke-width: 0.864;
}
.l17{
  fill: #00ffcc; fill-opacity: 0.2;
  stroke: #00ffcc;
  stroke-linecap:round;
  stroke-linejoin:round;
  stroke-width: 0.864;
}
.l18{
  fill: #ce0097;
  stroke: #ce0097;
  stroke-linecap:round;
  stroke-linejoin:round;
  stroke-width: 0.864;
}
.l19{
  fill: #d2d46b; fill-opacity: 0.2;
  stroke: #d2d46b;
  stroke-linecap:round;
  stroke-linejoin:round;
  stroke-width: 0.864;
}
.l20{
  fill: #ef6158; fill-opacity: 0.2;
  stroke: #ef6158;
  stroke-linecap:round;
  stroke-linejoin:round;
  stroke-width: 0.864;
}
.l21{
  fill: #fdb200; fill-opacity: 0.2;
  stroke: #fdb200;
  stroke-linecap:round;
  stroke-linejoin:round;
  stroke-width: 0.864;
}
text {font-family: Sans-Serif;}
</style>
<rect class="l0" x="0" y="0" width="1366" height="634"/>
<text fill="#0044ee"  xml:space="preserve" font-size="16.9991" transform="translate(361.363, 76.111)" >VDD</text>
<text fill="#0044ee"  xml:space="preserve" font-size="16.9991" transform="translate(327.27, 284.142)" >V_in_plus</text>
<text fill="#0044ee"  xml:space="preserve" font-size="16.9991" transform="translate(310.27, 343.58)" >V_in_minus</text>
<text fill="#0044ee"  xml:space="preserve" font-size="16.9991" transform="translate(952.875, 224.705)" >Vout</text>
<text fill="#0044ee"  xml:space="preserve" font-size="16.9991" transform="translate(710.443, 524.345) rotate(270)" >I_bias</text>
<text fill="#0044ee"  xml:space="preserve" font-size="16.9991" transform="translate(521.102, 165.886)" >VDD</text>
<text fill="#0044ee"  xml:space="preserve" font-size="16.9991" transform="translate(375.27, 462.455)" >VSS</text>
<text fill="#0044ee"  xml:space="preserve" font-size="16.9991" transform="translate(743.039, 284.761)" >VSS</text>
<text fill="#0044ee"  xml:space="preserve" font-size="16.9991" transform="translate(633.398, 284.761)" >VSS</text>
<text fill="#0044ee"  xml:space="preserve" font-size="16.9991" transform="translate(851.336, 165.886)" >VDD</text>
<text fill="#222222"  xml:space="preserve" font-size="10.3025" transform="translate(558.391, 257.011)" >XM3</text>
<text fill="#ff0000"  xml:space="preserve" font-size="7.72688" transform="translate(598.727, 301.727)" >S</text>
<text fill="#ff0000"  xml:space="preserve" font-size="7.72688" transform="translate(598.727, 258.192)" >D</text>
<text fill="#ff0000"  xml:space="preserve" font-size="7.72688" transform="translate(596.25, 274.485)" >B</text>
<text fill="#ff0000"  xml:space="preserve" font-size="7.72688" transform="translate(560.531, 274.485)" >G</text>
<text fill="#222222"  xml:space="preserve" font-size="10.3025" transform="translate(606.156, 266.245)" >nfet_03v3</text>
<text fill="#666600"  xml:space="preserve" font-size="10.3025" transform="translate(607.395, 300.351)" >1 x 1u / 0.28u</text>
<text fill="#666600"  xml:space="preserve" font-size="10.3025" transform="translate(607.395, 287.968)" >nf=1</text>
<text fill="#222222"  xml:space="preserve" font-size="10.3025" transform="translate(829.047, 257.011)" >XM4</text>
<text fill="#ff0000"  xml:space="preserve" font-size="7.72688" transform="translate(806.711, 301.727)" >S</text>
<text fill="#ff0000"  xml:space="preserve" font-size="7.72688" transform="translate(805.711, 258.192)" >D</text>
<text fill="#ff0000"  xml:space="preserve" font-size="7.72688" transform="translate(809.188, 274.485)" >B</text>
<text fill="#ff0000"  xml:space="preserve" font-size="7.72688" transform="translate(843.906, 274.485)" >G</text>
<text fill="#222222"  xml:space="preserve" font-size="10.3025" transform="translate(751.281, 266.245)" >nfet_03v3</text>
<text fill="#666600"  xml:space="preserve" font-size="10.3025" transform="translate(730.043, 300.351)" >1 x 1u / 0.28u</text>
<text fill="#666600"  xml:space="preserve" font-size="10.3025" transform="translate(776.043, 287.968)" >nf=1</text>
<text fill="#ff0000"  xml:space="preserve" font-size="7.72688" transform="translate(587.773, 182.852)" >D</text>
<text fill="#ff0000"  xml:space="preserve" font-size="7.72688" transform="translate(588.773, 139.317)" >S</text>
<text fill="#ff0000"  xml:space="preserve" font-size="7.72688" transform="translate(591.25, 155.61)" >B</text>
<text fill="#ff0000"  xml:space="preserve" font-size="7.72688" transform="translate(625.969, 155.61)" >G</text>
<text fill="#222222"  xml:space="preserve" font-size="10.3025" transform="translate(533.344, 147.37)" >pfet_03v3</text>
<text fill="#666600"  xml:space="preserve" font-size="10.3025" transform="translate(502.105, 181.476)" >1 x 0.3u / 0.28u</text>
<text fill="#666600"  xml:space="preserve" font-size="10.3025" transform="translate(558.105, 169.093)" >nf=1</text>
<text fill="#222222"  xml:space="preserve" font-size="10.3025" transform="translate(611.109, 138.136)" >XM1</text>
<text fill="#ff0000"  xml:space="preserve" font-size="7.72688" transform="translate(816.664, 182.852)" >D</text>
<text fill="#ff0000"  xml:space="preserve" font-size="7.72688" transform="translate(816.664, 139.317)" >S</text>
<text fill="#ff0000"  xml:space="preserve" font-size="7.72688" transform="translate(814.188, 155.61)" >B</text>
<text fill="#ff0000"  xml:space="preserve" font-size="7.72688" transform="translate(778.469, 155.61)" >G</text>
<text fill="#222222"  xml:space="preserve" font-size="10.3025" transform="translate(824.094, 147.37)" >pfet_03v3</text>
<text fill="#666600"  xml:space="preserve" font-size="10.3025" transform="translate(825.332, 181.476)" >1 x 0.3u / 0.28u</text>
<text fill="#666600"  xml:space="preserve" font-size="10.3025" transform="translate(825.332, 169.093)" >nf=1</text>
<text fill="#222222"  xml:space="preserve" font-size="10.3025" transform="translate(776.328, 138.136)" >XM2</text>
<path class="l4" d="M583.867 255.086L583.867 299.664"/>
<path class="l4" d="M556.625 277.375L578.914 277.375"/>
<path class="l4" d="M596.25 247.656L596.25 260.039"/>
<path class="l4" d="M596.25 294.711L596.25 307.094"/>
<path class="l4" d="M578.914 262.516L578.914 292.234"/>
<path class="l4" d="M583.867 260.039L596.25 260.039"/>
<path class="l4" d="M583.867 294.711L591.297 294.711"/>
<path class="l4" d="M591.297 292.234L596.25 294.711L591.297 297.188L591.297 292.234"/>
<path class="l4" d="M826.57 255.086L826.57 299.664"/>
<path class="l4" d="M831.523 277.375L853.813 277.375"/>
<path class="l4" d="M814.188 247.656L814.188 260.039"/>
<path class="l4" d="M814.188 294.711L814.188 307.094"/>
<path class="l4" d="M831.523 262.516L831.523 292.234"/>
<path class="l4" d="M814.188 260.039L826.57 260.039"/>
<path class="l4" d="M819.141 294.711L826.57 294.711"/>
<path class="l4" d="M819.141 292.234L814.188 294.711L819.141 297.188L819.141 292.234"/>
<path class="l4" d="M608.633 136.211L608.633 180.789"/>
<path class="l4" d="M596.25 128.781L596.25 141.164"/>
<path class="l4" d="M596.25 175.836L596.25 188.219"/>
<path class="l4" d="M613.586 143.641L613.586 173.359"/>
<path class="l4" d="M596.25 175.836L608.633 175.836"/>
<path class="l4" d="M596.25 141.164L603.68 141.164"/>
<path class="l4" d="M623.492 158.5L635.875 158.5"/>
<path class="l4" d="M603.68 138.688L608.633 141.164L603.68 143.641L603.68 138.688"/>
<circle class="l4" cx="618.539" cy="158.5" r="4.95312" style="fill:none;" />
<path class="l4" d="M801.805 136.211L801.805 180.789"/>
<path class="l4" d="M814.188 128.781L814.188 141.164"/>
<path class="l4" d="M814.188 175.836L814.188 188.219"/>
<path class="l4" d="M796.852 143.641L796.852 173.359"/>
<path class="l4" d="M801.805 175.836L814.188 175.836"/>
<path class="l4" d="M806.758 141.164L814.188 141.164"/>
<path class="l4" d="M774.563 158.5L786.945 158.5"/>
<path class="l4" d="M806.758 138.688L801.805 141.164L806.758 143.641L806.758 138.688"/>
<circle class="l4" cx="791.898" cy="158.5" r="4.95312" style="fill:none;" />
<path class="l5" d="M596.25 274.898L591.297 277.375L596.25 279.852L596.25 274.898"/>
<path class="l5" d="M593.773 245.18L598.727 245.18L598.727 250.133L593.773 250.133L593.773 245.18z"/>
<path class="l5" d="M554.148 274.898L559.102 274.898L559.102 279.852L554.148 279.852L554.148 274.898z"/>
<path class="l5" d="M593.773 304.617L598.727 304.617L598.727 309.57L593.773 309.57L593.773 304.617z"/>
<path class="l5" d="M596.173 277.298L596.327 277.298L596.327 277.452L596.173 277.452L596.173 277.298z"/>
<path class="l5" d="M814.188 274.898L819.141 277.375L814.188 279.852L814.188 274.898"/>
<path class="l5" d="M811.711 245.18L816.664 245.18L816.664 250.133L811.711 250.133L811.711 245.18z"/>
<path class="l5" d="M851.336 274.898L856.289 274.898L856.289 279.852L851.336 279.852L851.336 274.898z"/>
<path class="l5" d="M811.711 304.617L816.664 304.617L816.664 309.57L811.711 309.57L811.711 304.617z"/>
<path class="l5" d="M814.11 277.298L814.265 277.298L814.265 277.452L814.11 277.452L814.11 277.298z"/>
<path class="l5" d="M412.984 69.3438L417.938 69.3438"/>
<path class="l5" d="M412.984 69.3438L409.27 64.3906L400.602 64.3906L404.316 69.3438L400.602 74.2969L409.27 74.2969L412.984 69.3438"/>
<path class="l5" d="M416.699 68.1055L419.176 68.1055L419.176 70.582L416.699 70.582L416.699 68.1055z"/>
<path class="l5" d="M422.891 277.375L427.844 277.375"/>
<path class="l5" d="M422.891 277.375L419.176 272.422L410.508 272.422L414.223 277.375L410.508 282.328L419.176 282.328L422.891 277.375"/>
<path class="l5" d="M426.605 276.137L429.082 276.137L429.082 278.613L426.605 278.613L426.605 276.137z"/>
<path class="l5" d="M422.891 336.813L427.844 336.813"/>
<path class="l5" d="M422.891 336.813L419.176 331.859L410.508 331.859L414.223 336.813L410.508 341.766L419.176 341.766L422.891 336.813"/>
<path class="l5" d="M426.605 335.574L429.082 335.574L429.082 338.051L426.605 338.051L426.605 335.574z"/>
<path class="l5" d="M933.063 217.938L941.73 217.938"/>
<path class="l5" d="M950.398 217.938L946.684 212.984L938.016 212.984L941.73 217.938L938.016 222.891L946.684 222.891L950.398 217.938"/>
<path class="l5" d="M931.824 216.699L934.301 216.699L934.301 219.176L931.824 219.176L931.824 216.699z"/>
<path class="l5" d="M705.219 455.688L705.219 458.783"/>
<path class="l5" d="M700.266 469.309L705.219 473.023L710.172 469.309L710.172 462.498L705.219 458.783L700.266 462.498L700.266 469.309"/>
<path class="l5" d="M703.98 454.449L706.457 454.449L706.457 456.926L703.98 456.926L703.98 454.449z"/>
<path class="l5" d="M601.203 156.023L596.25 158.5L601.203 160.977L601.203 156.023"/>
<path class="l5" d="M593.773 185.742L598.727 185.742L598.727 190.695L593.773 190.695L593.773 185.742z"/>
<path class="l5" d="M633.398 156.023L638.352 156.023L638.352 160.977L633.398 160.977L633.398 156.023z"/>
<path class="l5" d="M593.773 126.305L598.727 126.305L598.727 131.258L593.773 131.258L593.773 126.305z"/>
<path class="l5" d="M596.173 158.423L596.327 158.423L596.327 158.577L596.173 158.577L596.173 158.423z"/>
<path class="l5" d="M809.234 156.023L814.188 158.5L809.234 160.977L809.234 156.023"/>
<path class="l5" d="M811.711 185.742L816.664 185.742L816.664 190.695L811.711 190.695L811.711 185.742z"/>
<path class="l5" d="M772.086 156.023L777.039 156.023L777.039 160.977L772.086 160.977L772.086 156.023z"/>
<path class="l5" d="M811.711 126.305L816.664 126.305L816.664 131.258L811.711 131.258L811.711 126.305z"/>
<path class="l5" d="M814.11 158.423L814.265 158.423L814.265 158.577L814.11 158.577L814.11 158.423z"/>
<path class="l5" d="M565.293 157.262L567.77 157.262L567.77 159.738L565.293 159.738L565.293 157.262z"/>
<path class="l5" d="M422.891 455.688L427.844 455.688"/>
<path class="l5" d="M422.891 455.688L419.176 450.734L410.508 450.734L414.223 455.688L410.508 460.641L419.176 460.641L422.891 455.688"/>
<path class="l5" d="M426.605 454.449L429.082 454.449L429.082 456.926L426.605 456.926L426.605 454.449z"/>
<path class="l5" d="M783.23 276.137L785.707 276.137L785.707 278.613L783.23 278.613L783.23 276.137z"/>
<path class="l5" d="M624.73 276.137L627.207 276.137L627.207 278.613L624.73 278.613L624.73 276.137z"/>
<path class="l5" d="M842.668 157.262L845.145 157.262L845.145 159.738L842.668 159.738L842.668 157.262z"/>
<path class="l1" d="M596.25 188.219L596.25 247.656"/>
<path class="l1" d="M814.188 188.219L814.188 247.656"/>
<path class="l1" d="M853.813 277.375L933.063 277.375"/>
<path class="l1" d="M596.25 69.3438L596.25 128.781"/>
<path class="l1" d="M814.188 69.3438L814.188 128.781"/>
<path class="l1" d="M596.25 69.3438L814.188 69.3438"/>
<path class="l1" d="M417.938 69.3438L596.25 69.3438"/>
<path class="l1" d="M596.25 307.094L596.25 376.438"/>
<path class="l1" d="M814.188 307.094L814.188 376.438"/>
<path class="l1" d="M596.25 376.438L814.188 376.438"/>
<path class="l1" d="M705.219 376.438L705.219 425.969"/>
<path class="l1" d="M814.188 217.938L933.063 217.938"/>
<path class="l1" d="M933.063 277.375L933.063 336.813"/>
<path class="l1" d="M427.844 336.813L437.75 336.813"/>
<path class="l1" d="M705.219 425.969L705.219 455.688"/>
<path class="l1" d="M635.875 158.5L774.563 158.5"/>
<path class="l1" d="M596.25 217.938L675.5 217.938"/>
<path class="l1" d="M675.5 158.5L675.5 217.938"/>
<path class="l1" d="M814.188 158.5L843.906 158.5"/>
<path class="l1" d="M784.469 277.375L814.188 277.375"/>
<path class="l1" d="M596.25 277.375L625.969 277.375"/>
<path class="l1" d="M566.531 158.5L596.25 158.5"/>
<path class="l1" d="M497.188 277.375L556.625 277.375"/>
<path class="l1" d="M497.188 336.813L933.063 336.813"/>
<path class="l1" d="M427.844 277.375L497.188 277.375"/>
<path class="l1" d="M437.75 336.813L497.188 336.813"/>
<circle class="l1" cx="675.5" cy="158.5" r="3.66531"/>
<circle class="l1" cx="596.25" cy="69.3438" r="3.66531"/>
<circle class="l1" cx="596.25" cy="69.3438" r="3.66531"/>
<circle class="l1" cx="596.25" cy="69.3438" r="3.66531"/>
<circle class="l1" cx="596.25" cy="217.938" r="3.66531"/>
<circle class="l1" cx="705.219" cy="376.438" r="3.66531"/>
<circle class="l1" cx="814.188" cy="217.938" r="3.66531"/>
</svg>
