<svg xmlns="http://www.w3.org/2000/svg" xmlns:xlink="http://www.w3.org/1999/xlink" width="1920" height="946" version="1.1">
<style type="text/css">
.l0{
  fill: #ffffff;
  stroke: #ffffff;
  stroke-linecap:round;
  stroke-linejoin:round;
  stroke-width: 2.4832;
}
.l1{
  fill: #0044ee;
  stroke: #0044ee;
  stroke-linecap:round;
  stroke-linejoin:round;
  stroke-width: 2.4832;
}
.l2{
  fill: #aaaaaa; fill-opacity: 0.2;
  stroke: #aaaaaa;
  stroke-linecap:round;
  stroke-linejoin:round;
  stroke-width: 2.4832;
}
.l3{
  fill: #222222; fill-opacity: 0.5;
  stroke: #222222;
  stroke-linecap:round;
  stroke-linejoin:round;
  stroke-width: 2.4832;
}
.l4{
  fill: #229900;
  stroke: #229900;
  stroke-linecap:round;
  stroke-linejoin:round;
  stroke-width: 2.4832;
}
.l5{
  fill: #bb2200;
  stroke: #bb2200;
  stroke-linecap:round;
  stroke-linejoin:round;
  stroke-width: 2.4832;
}
.l6{
  fill: #00ccee; fill-opacity: 0.5;
  stroke: #00ccee;
  stroke-linecap:round;
  stroke-linejoin:round;
  stroke-width: 2.4832;
}
.l7{
  fill: #ff0000; fill-opacity: 0.5;
  stroke: #ff0000;
  stroke-linecap:round;
  stroke-linejoin:round;
  stroke-width: 2.4832;
}
.l8{
  fill: #888800; fill-opacity: 0.5;
  stroke: #888800;
  stroke-linecap:round;
  stroke-linejoin:round;
  stroke-width: 2.4832;
}
.l9{
  fill: #00aaaa; fill-opacity: 0.5;
  stroke: #00aaaa;
  stroke-linecap:round;
  stroke-linejoin:round;
  stroke-width: 2.4832;
}
.l10{
  fill: #880088;
  stroke: #880088;
  stroke-linecap:round;
  stroke-linejoin:round;
  stroke-width: 2.4832;
}
.l11{
  fill: #00ff00; fill-opacity: 0.5;
  stroke: #00ff00;
  stroke-linecap:round;
  stroke-linejoin:round;
  stroke-width: 2.4832;
}
.l12{
  fill: #0000cc; fill-opacity: 0.5;
  stroke: #0000cc;
  stroke-linecap:round;
  stroke-linejoin:round;
  stroke-width: 2.4832;
}
.l13{
  fill: #666600; fill-opacity: 0.5;
  stroke: #666600;
  stroke-linecap:round;
  stroke-linejoin:round;
  stroke-width: 2.4832;
}
.l14{
  fill: #557755; fill-opacity: 0.2;
  stroke: #557755;
  stroke-linecap:round;
  stroke-linejoin:round;
  stroke-width: 2.4832;
}
.l15{
  fill: #aa2222; fill-opacity: 0.5;
  stroke: #aa2222;
  stroke-linecap:round;
  stroke-linejoin:round;
  stroke-width: 2.4832;
}
.l16{
  fill: #7ccc40; fill-opacity: 0.5;
  stroke: #7ccc40;
  stroke-linecap:round;
  stroke-linejoin:round;
  stroke-width: 2.4832;
}
.l17{
  fill: #00ffcc; fill-opacity: 0.2;
  stroke: #00ffcc;
  stroke-linecap:round;
  stroke-linejoin:round;
  stroke-width: 2.4832;
}
.l18{
  fill: #ce0097; fill-opacity: 0.5;
  stroke: #ce0097;
  stroke-linecap:round;
  stroke-linejoin:round;
  stroke-width: 2.4832;
}
.l19{
  fill: #d2d46b; fill-opacity: 0.2;
  stroke: #d2d46b;
  stroke-linecap:round;
  stroke-linejoin:round;
  stroke-width: 2.4832;
}
.l20{
  fill: #ef6158; fill-opacity: 0.2;
  stroke: #ef6158;
  stroke-linecap:round;
  stroke-linejoin:round;
  stroke-width: 2.4832;
}
.l21{
  fill: #fdb200; fill-opacity: 0.2;
  stroke: #fdb200;
  stroke-linecap:round;
  stroke-linejoin:round;
  stroke-width: 2.4832;
}
text {font-family: Sans-Serif;}
</style>
<rect class="l0" x="0" y="0" width="1920" height="946"/>
<text fill="#222222"  xml:space="preserve" font-size="35.8684" transform="translate(684.752, 643.241)" >@symname</text>
<text fill="#222222"  xml:space="preserve" font-size="23.9123" transform="translate(693.949, 733.552)" >@name</text>
<text fill="#222222"  xml:space="preserve" font-size="23.9123" transform="translate(1561.95, 293.374) rotate(270)" >Signal_OUT</text>
<text fill="#222222"  xml:space="preserve" font-size="23.9123" transform="translate(119.135, 797.931)" >Signal_IN</text>
<text fill="#229900"  xml:space="preserve" font-size="11.9561" transform="translate(1441.21, 382.405)" >Probe+Oscilloscope</text>
<text fill="#229900"  xml:space="preserve" font-size="11.9561" transform="translate(1441.21, 396.119)" >Loading</text>
<path class="l5" d="M1596.41 250.838L1607.9 250.838L1607.9 262.334L1596.41 262.334L1596.41 250.838z"/>
<path class="l5" d="M216.853 756.675L228.349 756.675L228.349 768.172L216.853 768.172L216.853 756.675z"/>
<path class="l16" d="M222.601 762.423L268.586 739.431"/>
<path class="l16" d="M268.586 739.431L659.46 693.446"/>
<path class="l16" d="M222.601 762.423L659.46 762.423"/>
<path class="l16" d="M659.46 693.446L682.453 670.453"/>
<path class="l16" d="M659.46 762.423L682.453 785.416"/>
<path class="l16" d="M682.453 670.453L682.453 785.416"/>
<path class="l16" d="M682.453 693.446L1027.34 693.446"/>
<path class="l16" d="M682.453 762.423L1027.34 762.423"/>
<path class="l16" d="M659.46 693.446L659.46 762.423"/>
<path class="l16" d="M1027.34 693.446L1050.33 716.438"/>
<path class="l16" d="M1027.34 762.423L1050.33 739.431"/>
<path class="l16" d="M1027.34 693.446L1027.34 762.423"/>
<path class="l16" d="M1050.33 716.438L1050.33 739.431"/>
<path class="l16" d="M1050.33 716.438L1211.28 716.438"/>
<path class="l16" d="M1050.33 739.431L1211.28 739.431"/>
<path class="l16" d="M1556.17 348.557L1579.16 371.549"/>
<path class="l16" d="M1625.15 371.549L1648.14 348.557"/>
<path class="l16" d="M1533.18 348.557L1671.13 348.557"/>
<path class="l16" d="M1533.18 325.564L1533.18 348.557"/>
<path class="l16" d="M1533.18 325.564L1671.13 325.564"/>
<path class="l16" d="M1671.13 325.564L1671.13 348.557"/>
<path class="l16" d="M1556.17 302.572L1556.17 325.564"/>
<path class="l16" d="M1648.14 302.572L1648.14 325.564"/>
<path class="l16" d="M1556.17 302.572L1648.14 302.572"/>
<path class="l16" d="M1602.16 256.586L1602.16 302.572"/>
<path class="l16" style="fill:none;" d="M1211.28 716.438 A402.121 402.121 0 0 0 1579.16 371.549"/>
<path class="l16" style="fill:none;" d="M1211.28 739.431 A426.957 426.957 0 0 0 1625.15 371.549"/>
</svg>
